<svg width="187" height="42" viewBox="0 0 187 42" fill="none" xmlns="http://www.w3.org/2000/svg">
<path d="M25.43 1H58.28L49.24 26.37C48.8053 27.587 48.005 28.6398 46.9489 29.3845C45.8928 30.1292 44.6323 30.5293 43.34 30.53H19.37C15.04 30.53 12.02 26.24 13.47 22.17L19.53 5.16C20.43 2.66 22.79 1 25.43 1Z" fill="#B82BF9"/>
<path d="M32.85 41.07H0L9.04 15.7C9.47474 14.483 10.275 13.4302 11.3311 12.6855C12.3872 11.9408 13.6477 11.5407 14.94 11.54H38.91C43.24 11.54 46.26 15.83 44.81 19.9L38.75 36.91C38.3153 38.1269 37.515 39.1798 36.4589 39.9245C35.4028 40.6692 34.1423 41.0693 32.85 41.07V41.07Z" fill="#FFBF33"/>
<path d="M33.979 24.032C33.9604 24.1406 33.9313 24.2471 33.892 24.35C33.753 24.723 33.502 25.064 33.26 25.354C32.87 25.823 32.604 26.436 32.11 26.805C31.9837 26.8972 31.8546 26.9855 31.723 27.07C31.339 27.322 30.952 27.567 30.701 27.991C30.368 28.553 30.496 29.334 30.633 30.042C30.693 30.345 30.753 30.635 30.779 30.889C30.889 31.942 30.536 32.324 29.761 32.969C29.6775 33.0382 29.6091 33.124 29.5602 33.2209C29.5114 33.3177 29.483 33.4237 29.477 33.532C29.427 34.002 29.618 34.547 29.183 34.932C28.983 35.109 28.801 35.23 28.639 35.402C28.559 35.484 28.483 35.582 28.409 35.702C28.281 35.918 28.194 36.157 28.095 36.387C28.035 36.529 27.969 36.67 27.885 36.8C27.839 36.874 27.785 36.945 27.725 37.012C27.584 37.177 27.411 37.322 27.223 37.441C26.8958 37.6517 26.5218 37.7787 26.134 37.811C25.624 37.843 24.943 38.205 24.487 37.831C24.301 37.681 24.213 37.453 24.124 37.245C24.061 37.098 23.982 36.605 23.348 35.957C22.946 35.549 23.085 35.092 23.041 34.559C23.0191 34.3235 22.9533 34.0943 22.847 33.883C22.781 33.7491 22.7089 33.6183 22.631 33.491C22.448 33.183 22.256 32.882 22.181 32.521C22.1383 32.3129 22.1373 32.0985 22.178 31.89C22.305 31.21 22.672 30.611 22.706 29.978C22.7237 29.6641 22.649 29.3519 22.491 29.08C22.198 28.56 21.711 28.216 21.491 27.638C21.312 27.17 21.411 26.386 20.991 26.043C20.561 25.694 19.956 26.067 19.471 25.69C18.927 25.27 18.579 25.178 17.937 25.525C17.281 25.882 16.837 25.78 16.187 25.688C15.731 25.624 15.343 25.633 15.027 25.48C14.834 25.387 14.669 25.233 14.533 24.966C14.517 24.937 14.503 24.906 14.489 24.876C14.364 24.599 14.182 24.386 13.992 24.19C13.688 23.87 13.365 23.583 13.235 23.103C13.058 22.449 12.879 21.893 13.105 21.243C13.119 21.2011 13.1347 21.1597 13.152 21.119C13.381 20.572 13.366 19.912 13.64 19.398C13.696 19.294 13.762 19.2 13.835 19.113C14.121 18.766 14.515 18.523 14.795 18.168C15.105 17.774 15.389 17.362 15.697 16.967C15.8585 16.7553 16.0304 16.5517 16.212 16.357C16.421 16.133 16.639 15.967 16.88 15.797C17.226 15.552 17.423 15.597 17.85 15.618C18.347 15.643 18.84 15.6 19.325 15.48C19.774 15.37 20.186 15.084 20.638 15.02C21.222 14.938 21.772 15.079 21.873 15.726C21.911 15.969 21.774 16.322 21.983 16.51C22.243 16.742 22.847 16.595 23.183 16.79C23.302 16.859 23.436 16.982 23.579 17.087H23.58C23.723 17.194 23.873 17.282 24.022 17.282C24.41 17.28 24.695 16.766 25.027 16.612C25.702 16.296 26.232 16.902 26.829 17.124C27.082 17.22 27.446 17.343 27.714 17.354C27.95 17.364 28.161 17.25 28.388 17.237C28.836 17.211 29.23 17.464 29.259 17.976C29.284 18.424 29.089 18.669 29.29 19.119C29.35 19.254 29.424 19.382 29.499 19.508C29.621 19.71 29.749 19.908 29.847 20.131C30.11 20.735 30.308 21.527 30.765 22.001C30.798 22.034 30.831 22.065 30.866 22.096C31.061 22.261 31.286 22.373 31.46 22.564C31.472 22.576 31.483 22.59 31.494 22.603C31.658 22.802 31.771 23.067 31.926 23.263L31.983 23.329C32.286 23.661 32.589 23.591 33.03 23.462C33.453 23.337 33.966 23.104 34 23.702C34.004 23.813 33.997 23.924 33.979 24.032V24.032ZM31.945 33.058C32.07 33.438 31.652 33.748 31.635 34.11C31.629 34.227 31.662 34.308 31.679 34.426C31.696 34.537 31.674 34.654 31.669 34.763C31.657 35.103 31.893 35.368 32.22 35.37C32.565 35.372 32.754 34.998 32.839 34.698C32.921 34.407 32.959 34.118 33.021 33.823C33.074 33.573 33.253 33.333 33.368 33.108C33.479 32.89 33.648 32.717 33.718 32.477C33.793 32.215 33.792 31.917 33.786 31.645C33.782 31.447 33.702 31.2 33.562 31.054C33.382 30.865 33.139 31.011 33.011 31.187C32.856 31.397 32.896 31.737 32.665 31.877C32.474 31.994 32.259 31.9 32.058 31.981C31.826 32.074 31.706 32.366 31.738 32.608C31.756 32.734 31.893 33.001 31.945 33.058V33.058Z" fill="#B82BF9"/>
<path d="M77.1992 24.1055H70.7656V19.6582H77.1992C78.1484 19.6582 78.9102 19.5 79.4844 19.1836C80.0703 18.8672 80.498 18.4336 80.7676 17.8828C81.0488 17.3203 81.1895 16.6875 81.1895 15.9844C81.1895 15.2578 81.0488 14.584 80.7676 13.9629C80.498 13.3301 80.0703 12.8203 79.4844 12.4336C78.9102 12.0469 78.1484 11.8535 77.1992 11.8535H72.8398V33H67.1094V7.40625H77.1992C79.2383 7.40625 80.9844 7.77539 82.4375 8.51367C83.9023 9.25195 85.0215 10.2656 85.7949 11.5547C86.5801 12.832 86.9727 14.2969 86.9727 15.9492C86.9727 17.6016 86.5801 19.0371 85.7949 20.2559C85.0215 21.4746 83.9023 22.4238 82.4375 23.1035C80.9844 23.7715 79.2383 24.1055 77.1992 24.1055ZM95.6738 18.4102V33H90.1895V13.9805H95.3398L95.6738 18.4102ZM101.352 13.8398L101.264 18.9551C101.029 18.9199 100.725 18.8906 100.35 18.8672C99.9746 18.832 99.6523 18.8145 99.3828 18.8145C98.6797 18.8145 98.0703 18.9023 97.5547 19.0781C97.0508 19.2422 96.6289 19.4883 96.2891 19.8164C95.9609 20.1445 95.7148 20.5547 95.5508 21.0469C95.3867 21.5273 95.3047 22.084 95.3047 22.7168L94.2676 22.207C94.2676 20.9531 94.3906 19.8047 94.6367 18.7617C94.8828 17.7188 95.2402 16.8164 95.709 16.0547C96.1777 15.2812 96.752 14.6836 97.4316 14.2617C98.1113 13.8398 98.8848 13.6289 99.752 13.6289C100.033 13.6289 100.32 13.6465 100.613 13.6816C100.906 13.7168 101.152 13.7695 101.352 13.8398ZM109.385 13.9805V33H103.883V13.9805H109.385ZM103.549 9.05859C103.549 8.26172 103.83 7.61133 104.393 7.10742C104.955 6.5918 105.693 6.33398 106.607 6.33398C107.521 6.33398 108.26 6.5918 108.822 7.10742C109.396 7.61133 109.684 8.26172 109.684 9.05859C109.684 9.84375 109.396 10.4941 108.822 11.0098C108.26 11.5137 107.521 11.7656 106.607 11.7656C105.693 11.7656 104.955 11.5137 104.393 11.0098C103.83 10.4941 103.549 9.84375 103.549 9.05859ZM118.842 17.9707V33H113.357V13.9805H118.508L118.842 17.9707ZM118.139 22.8223L116.75 22.8574C116.75 21.5215 116.908 20.2969 117.225 19.1836C117.553 18.0586 118.027 17.0801 118.648 16.248C119.27 15.416 120.037 14.7715 120.951 14.3145C121.877 13.8574 122.943 13.6289 124.15 13.6289C124.994 13.6289 125.762 13.7578 126.453 14.0156C127.145 14.2617 127.736 14.6543 128.229 15.1934C128.732 15.7207 129.119 16.4121 129.389 17.2676C129.658 18.1113 129.793 19.125 129.793 20.3086V33H124.309V20.9766C124.309 20.1328 124.203 19.4941 123.992 19.0605C123.793 18.6152 123.5 18.3105 123.113 18.1465C122.727 17.9824 122.264 17.9004 121.725 17.9004C121.139 17.9004 120.617 18.0293 120.16 18.2871C119.715 18.5332 119.34 18.8789 119.035 19.3242C118.73 19.7695 118.502 20.291 118.35 20.8887C118.209 21.4863 118.139 22.1309 118.139 22.8223ZM129.23 22.541L127.49 22.6816C127.49 21.3926 127.643 20.1973 127.947 19.0957C128.252 17.9941 128.709 17.0391 129.318 16.2305C129.928 15.4102 130.684 14.7715 131.586 14.3145C132.5 13.8574 133.561 13.6289 134.768 13.6289C135.658 13.6289 136.467 13.7578 137.193 14.0156C137.932 14.2734 138.564 14.6895 139.092 15.2637C139.631 15.8379 140.047 16.5938 140.34 17.5312C140.633 18.457 140.779 19.5938 140.779 20.9414V33H135.26V20.9414C135.26 20.1094 135.154 19.4766 134.943 19.043C134.744 18.6094 134.451 18.3105 134.064 18.1465C133.689 17.9824 133.238 17.9004 132.711 17.9004C132.125 17.9004 131.615 18.0234 131.182 18.2695C130.748 18.5039 130.385 18.832 130.092 19.2539C129.799 19.6641 129.582 20.1504 129.441 20.7129C129.301 21.2754 129.23 21.8848 129.23 22.541ZM153.418 33.3516C151.906 33.3516 150.553 33.1113 149.357 32.6309C148.162 32.1504 147.148 31.4883 146.316 30.6445C145.496 29.7891 144.869 28.8047 144.436 27.6914C144.002 26.5781 143.785 25.3887 143.785 24.123V23.4551C143.785 22.0371 143.984 20.7305 144.383 19.5352C144.781 18.3398 145.361 17.3027 146.123 16.4238C146.896 15.5332 147.846 14.8477 148.971 14.3672C150.096 13.875 151.379 13.6289 152.82 13.6289C154.168 13.6289 155.369 13.8516 156.424 14.2969C157.479 14.7305 158.369 15.3574 159.096 16.1777C159.822 16.9863 160.373 17.9648 160.748 19.1133C161.135 20.25 161.328 21.5273 161.328 22.9453V25.1953H146V21.6621H155.949V21.2402C155.949 20.5723 155.826 19.9863 155.58 19.4824C155.346 18.9785 154.994 18.5918 154.525 18.3223C154.068 18.041 153.488 17.9004 152.785 17.9004C152.117 17.9004 151.561 18.041 151.115 18.3223C150.67 18.6035 150.312 19.002 150.043 19.5176C149.785 20.0215 149.598 20.6133 149.48 21.293C149.363 21.9609 149.305 22.6816 149.305 23.4551V24.123C149.305 24.8613 149.404 25.5352 149.604 26.1445C149.803 26.7539 150.096 27.2754 150.482 27.709C150.869 28.1426 151.338 28.4824 151.889 28.7285C152.439 28.9746 153.066 29.0977 153.77 29.0977C154.637 29.0977 155.463 28.9336 156.248 28.6055C157.033 28.2656 157.713 27.7383 158.287 27.0234L160.854 29.959C160.467 30.5215 159.922 31.0664 159.219 31.5938C158.527 32.1094 157.695 32.5312 156.723 32.8594C155.75 33.1875 154.648 33.3516 153.418 33.3516Z" fill="#B82BF9"/>
<path d="M165.109 7.40625H174.936C176.893 7.40625 178.586 7.69922 180.016 8.28516C181.457 8.87109 182.564 9.73828 183.338 10.8867C184.111 12.0352 184.498 13.4531 184.498 15.1406C184.498 16.5469 184.27 17.7422 183.812 18.7266C183.355 19.7109 182.711 20.5254 181.879 21.1699C181.059 21.8145 180.098 22.3359 178.996 22.7344L177.133 23.7539H168.766L168.73 19.3066H174.953C175.809 19.3066 176.518 19.1543 177.08 18.8496C177.643 18.5449 178.064 18.1172 178.346 17.5664C178.639 17.0039 178.785 16.3477 178.785 15.5977C178.785 14.8242 178.639 14.1562 178.346 13.5938C178.053 13.0312 177.619 12.6035 177.045 12.3105C176.482 12.0059 175.779 11.8535 174.936 11.8535H170.84V33H165.109V7.40625ZM179.277 33L173.529 21.627L179.576 21.6094L185.412 32.7363V33H179.277Z" fill="#FFBF33"/>
</svg>
